<?xml version="1.0" encoding="UTF-8" standalone="no"?>
<!-- Uploaded to: SVG Repo, www.svgrepo.com, Generator: SVG Repo Mixer Tools -->

<svg
   fill="#000000"
   height="800"
   width="800"
   version="1.1"
   id="Layer_1"
   viewBox="0 0 500 500"
   xml:space="preserve"
   xmlns="http://www.w3.org/2000/svg"
   xmlns:svg="http://www.w3.org/2000/svg"><defs
   id="defs30" />
<g
   id="g2">
	<g
   id="g1">
		<path
   d="M 406.192,109.332 H 97.716 c -2.212,0 -4,1.792 -4,4 0,2.208 1.788,4 4,4 h 308.476 c 2.212,0 4,-1.792 4,-4 0,-2.208 -1.788,-4 -4,-4 z"
   id="path1" />
	</g>
</g>
<g
   id="g4">
	<g
   id="g3">
		<path
   d="M 160.192,148.38 H 97.716 c -2.212,0 -4,1.792 -4,4 0,2.208 1.788,4 4,4 h 62.476 c 2.212,0 4,-1.792 4,-4 0,-2.208 -1.788,-4 -4,-4 z"
   id="path2" />
	</g>
</g>
<g
   id="g6">
	<g
   id="g5">
		<path
   d="m 406.192,148.38 h -214.76 c -2.212,0 -4,1.792 -4,4 0,2.208 1.788,4 4,4 h 214.76 c 2.212,0 4,-1.792 4,-4 0,-2.208 -1.788,-4 -4,-4 z"
   id="path4" />
	</g>
</g>
<g
   id="g8">
	<g
   id="g7">
		<path
   d="m 406.192,187.428 h -62.476 c -2.212,0 -4,1.792 -4,4 0,2.208 1.788,4 4,4 h 62.476 c 2.212,0 4,-1.792 4,-4 0,-2.208 -1.788,-4 -4,-4 z"
   id="path6" />
	</g>
</g>
<g
   id="g10">
	<g
   id="g9">
		<path
   d="M 308.572,187.428 H 97.716 c -2.212,0 -4,1.792 -4,4 0,2.208 1.788,4 4,4 h 210.856 c 2.208,0 4,-1.792 4,-4 0,-2.208 -1.788,-4 -4,-4 z"
   id="path8" />
	</g>
</g>
<g
   id="g12">
	<g
   id="g11">
		<path
   d="M 406.192,226.476 H 97.716 c -2.212,0 -4,1.792 -4,4 0,2.208 1.788,4 4,4 h 308.476 c 2.212,0 4,-1.792 4,-4 0,-2.208 -1.788,-4 -4,-4 z"
   id="path10" />
	</g>
</g>
<g
   id="g14">
	<g
   id="g13">
		<path
   d="M 406.192,343.62 H 97.716 c -2.212,0 -4,1.792 -4,4 0,2.208 1.788,4 4,4 h 308.476 c 2.212,0 4,-1.792 4,-4 0,-2.208 -1.788,-4 -4,-4 z"
   id="path12" />
	</g>
</g>
<g
   id="g16">
	<g
   id="g15">
		<path
   d="M 160.192,265.524 H 97.716 c -2.212,0 -4,1.792 -4,4 0,2.208 1.788,4 4,4 h 62.476 c 2.212,0 4,-1.792 4,-4 0,-2.208 -1.788,-4 -4,-4 z"
   id="path14" />
	</g>
</g>
<g
   id="g18">
	<g
   id="g17">
		<path
   d="m 406.192,265.524 h -214.76 c -2.212,0 -4,1.792 -4,4 0,2.208 1.788,4 4,4 h 214.76 c 2.212,0 4,-1.792 4,-4 0,-2.208 -1.788,-4 -4,-4 z"
   id="path16" />
	</g>
</g>
<g
   id="g20">
	<g
   id="g19">
		<path
   d="m 406.192,304.572 h -62.476 c -2.212,0 -4,1.792 -4,4 0,2.208 1.788,4 4,4 h 62.476 c 2.212,0 4,-1.792 4,-4 0,-2.208 -1.788,-4 -4,-4 z"
   id="path18" />
	</g>
</g>
<g
   id="g22">
	<g
   id="g21">
		<path
   d="M 308.572,304.572 H 97.716 c -2.212,0 -4,1.792 -4,4 0,2.208 1.788,4 4,4 h 210.856 c 2.208,0 4,-1.792 4,-4 0,-2.208 -1.788,-4 -4,-4 z"
   id="path20" />
	</g>
</g>
<g
   id="g24">
	<g
   id="g23">
		<path
   d="M 160.192,382.668 H 97.716 c -2.212,0 -4,1.792 -4,4 0,2.208 1.788,4 4,4 h 62.476 c 2.212,0 4,-1.792 4,-4 0,-2.208 -1.788,-4 -4,-4 z"
   id="path22" />
	</g>
</g>
<g
   id="g26">
	<g
   id="g25">
		<path
   d="M 367.144,382.668 H 191.428 c -2.212,0 -4,1.792 -4,4 0,2.208 1.788,4 4,4 h 175.716 c 2.212,0 4,-1.792 4,-4 0,-2.208 -1.788,-4 -4,-4 z"
   id="path24" />
	</g>
</g>
<g
   id="g28">
	<g
   id="g27">
		<path
   d="M 466.66,0 H 37.144 C 17.356,0 0,16.436 0,35.176 V 464.692 C 0,483.5 17.356,500 37.144,500 h 331.908 c 1.068,0 2.096,-0.428 2.852,-1.192 L 498.852,369.9 c 0.732,-0.748 1.148,-1.756 1.148,-2.808 V 35.176 C 500,15.124 485.668,0 466.66,0 Z M 492,365.456 367.376,492 H 37.144 C 21.616,492 8,479.24 8,464.692 V 35.176 C 8,20.7 21.616,8 37.144,8 H 466.66 C 481.104,8 492,19.68 492,35.176 Z"
   id="path26" />
	</g>
</g>
<g
   id="g30">
	<g
   id="g29">
		<path
   d="m 445.236,363.144 h -44.948 c -19.788,0 -37.144,16.436 -37.144,35.176 V 496 c 0,2.208 1.788,4 4,4 2.212,0 4,-1.792 4,-4 v -97.68 c 0,-14.476 13.616,-27.176 29.144,-27.176 h 44.948 c 2.212,0 4,-1.792 4,-4 0,-2.208 -1.788,-4 -4,-4 z"
   id="path28" />
	</g>
</g>
</svg>
